<?xml version="1.0"?>
<svg xmlns="http://www.w3.org/2000/svg" viewBox="0 0 50 50" enable-background="new 0 0 50 50">
    <path d="M 24.75 0.15625 C 18.45 0.15625 13.34375 5.05625 12.84375 11.15625 C 13.14375 11.05625 13.45 10.9375 13.75 10.9375 L 13.9375 10.9375 C 14.2375 10.9375 14.54375 11.05625 14.84375 11.15625 C 14.94375 10.65625 15.05625 10.0625 15.15625 9.5625 C 15.45625 8.5625 16.24375 7.7375 17.34375 7.4375 C 17.64375 7.3375 17.95 7.34375 18.25 7.34375 C 21.05 7.34375 21.95 10.05625 22.75 12.65625 C 23.75 11.65625 25.15 11.0625 26.75 11.0625 C 28.25 11.0625 29.65625 11.6625 30.65625 12.5625 C 31.65625 10.0625 32.65625 8.1625 34.65625 7.5625 C 34.95625 7.4625 35.35 7.34375 35.75 7.34375 C 33.75 3.04375 29.55 0.15625 24.75 0.15625 z M 18.1875 9.28125 C 18.08269 9.2913086 17.95625 9.3125 17.84375 9.34375 C 17.24375 9.54375 17.04375 10.05625 16.84375 10.65625 C 16.24375 12.35625 17.15625 17.15 18.15625 21.75 C 19.65625 28.35 21.35625 35.8625 18.15625 43.0625 C 18.05625 43.2625 17.7375 43.85 17.4375 44.25 C 16.7375 45.55 16.25 46.4625 16.25 47.0625 C 16.25 49.6625 22.65625 49.84375 24.65625 49.84375 C 26.65625 49.84375 33.0625 49.6625 33.0625 47.0625 C 33.0625 46.3625 32.54375 45.55 31.84375 44.25 C 31.54375 43.85 31.25625 43.3625 31.15625 43.0625 C 31.15625 43.0625 29.15 38.45625 29.75 33.65625 C 27.55 36.65625 25.9375 39.5375 25.9375 43.9375 C 25.9375 44.5375 25.5375 44.9375 24.9375 44.9375 C 24.4375 44.9375 23.9375 44.5375 23.9375 43.9375 C 23.9375 37.9375 26.6625 34.4625 29.5625 30.5625 C 32.9625 26.0625 36.85625 20.9375 37.15625 10.4375 C 37.15625 9.5375 36.15 9.14375 35.25 9.34375 C 32.45 10.14375 34.35 22.0625 26.75 22.0625 C 21.05 22.0625 21.05 15.4375 20.75 13.4375 C 20.46875 11.28125 19.759644 9.1303711 18.1875 9.28125 z M 13.9375 12.9375 C 13.3375 12.9375 12.9625 13.4625 13.0625 14.0625 C 13.1625 15.8625 14.14375 19.6625 15.34375 24.0625 C 16.14375 27.3625 17.1375 31.25625 17.9375 34.65625 C 18.0375 30.35625 17.05 26.15 16.25 22.25 C 15.45 18.95 14.75 16.04375 14.75 13.34375 C 14.55 13.04375 14.2375 12.9375 13.9375 12.9375 z M 26.75 13.0625 C 24.540861 13.0625 22.75 14.853361 22.75 17.0625 C 22.75 19.271639 24.540861 21.0625 26.75 21.0625 C 28.959139 21.0625 30.75 19.271639 30.75 17.0625 C 30.75 14.853361 28.959139 13.0625 26.75 13.0625 z"/>
</svg>
